<svg width="35" height="35" viewBox="0 0 35 35" fill="none" xmlns="http://www.w3.org/2000/svg">
<circle cx="17.5" cy="17.5" r="17.5" fill="black" fill-opacity="0.5" />
<path
    d="M20.3463 9.61112C20.2408 9.4871 20.1153 9.38867 19.9771 9.32149C19.8388 9.25431 19.6905 9.21973 19.5408 9.21973C19.391 9.21973 19.2427 9.25431 19.1045 9.32149C18.9662 9.38867 18.8408 9.4871 18.7353 9.61112L13.0629 16.227C12.9565 16.35 12.8721 16.4964 12.8145 16.6576C12.7569 16.8189 12.7273 16.9918 12.7273 17.1665C12.7273 17.3412 12.7569 17.5141 12.8145 17.6754C12.8721 17.8366 12.9565 17.983 13.0629 18.106L18.7353 24.7219C18.8408 24.8459 18.9662 24.9443 19.1045 25.0115C19.2427 25.0787 19.391 25.1133 19.5408 25.1133C19.6905 25.1133 19.8388 25.0787 19.9771 25.0115C20.1153 24.9443 20.2408 24.8459 20.3463 24.7219C20.4526 24.5989 20.537 24.4525 20.5946 24.2913C20.6522 24.13 20.6818 23.9571 20.6818 23.7824C20.6818 23.6077 20.6522 23.4348 20.5946 23.2736C20.537 23.1123 20.4526 22.966 20.3463 22.843L15.468 17.1665L20.3463 11.49C20.4526 11.367 20.537 11.2207 20.5946 11.0594C20.6522 10.8982 20.6818 10.7253 20.6818 10.5506C20.6818 10.3759 20.6522 10.203 20.5946 10.0417C20.537 9.88047 20.4526 9.73413 20.3463 9.61112Z"
    fill="white"
/>
</svg>