<svg width="78" height="17" viewBox="0 0 78 17" fill="none" xmlns="http://www.w3.org/2000/svg">
<path d="M7.2 0.592914C7.98667 0.592914 8.74 0.732914 9.46 1.01291C10.1933 1.27958 10.8067 1.63958 11.3 2.09291C11.8067 2.54625 12.1067 3.03291 12.2 3.55291C12.2667 3.89958 12.22 4.28625 12.06 4.71291C11.9 5.12625 11.6467 5.49291 11.3 5.81291C10.9533 6.11958 10.5333 6.28625 10.04 6.31291C9.86667 6.31291 9.64667 6.29291 9.38 6.25291C9.11333 6.21291 8.85333 6.13291 8.6 6.01291C8.36 5.89291 8.16667 5.71958 8.02 5.49291C8.22 5.38625 8.35333 5.27291 8.42 5.15291C8.48667 5.03291 8.50667 4.91291 8.48 4.79291C8.42667 4.52625 8.26667 4.30625 8 4.13291C7.74667 3.95958 7.43333 3.85291 7.06 3.81291C6.84667 3.78625 6.6 3.79291 6.32 3.83291C6.04 3.85958 5.78 3.95291 5.54 4.11292C5.31333 4.25958 5.15333 4.50625 5.06 4.85292C5.00667 5.05291 5.01333 5.27291 5.08 5.51291C5.16 5.73958 5.34667 5.95958 5.64 6.17291C5.93333 6.37291 6.38 6.54625 6.98 6.69291C7.9 6.90625 8.75333 7.13958 9.54 7.39291C10.34 7.64625 11.04 7.95958 11.64 8.33291C12.24 8.70625 12.7 9.17291 13.02 9.73291C13.3533 10.2796 13.5067 10.9662 13.48 11.7929C13.4667 12.3396 13.32 12.9129 13.04 13.5129C12.76 14.1129 12.3533 14.6729 11.82 15.1929C11.2867 15.6996 10.6333 16.1129 9.86 16.4329C9.08667 16.7529 8.20667 16.9129 7.22 16.9129C6.59333 16.9129 5.94667 16.8596 5.28 16.7529C4.61333 16.6462 3.98 16.4796 3.38 16.2529C2.79333 16.0262 2.27333 15.7262 1.82 15.3529C1.42 15.0062 1.13333 14.5729 0.96 14.0529C0.8 13.5329 0.766667 13.0129 0.86 12.4929C0.953333 11.9596 1.18667 11.5062 1.56 11.1329C1.94667 10.7596 2.48 10.5529 3.16 10.5129C3.02667 10.9129 3.1 11.3062 3.38 11.6929C3.67333 12.0662 4.10667 12.3862 4.68 12.6529C5.25333 12.9062 5.88 13.0596 6.56 13.1129C7.26667 13.1662 7.88 13.1396 8.4 13.0329C8.93333 12.9262 9.22667 12.7062 9.28 12.3729C9.34667 11.9729 9.26667 11.6529 9.04 11.4129C8.81333 11.1729 8.5 10.9929 8.1 10.8729C7.7 10.7396 7.26667 10.6329 6.8 10.5529C6.33333 10.4596 5.9 10.3662 5.5 10.2729C4.96667 10.1262 4.42667 9.93958 3.88 9.71291C3.34667 9.47291 2.85333 9.17291 2.4 8.81291C1.96 8.45291 1.6 8.01291 1.32 7.49291C1.04 6.97291 0.893333 6.36625 0.88 5.67291C0.866667 4.85958 1.03333 4.13958 1.38 3.51291C1.72667 2.87291 2.2 2.33958 2.8 1.91291C3.4 1.47291 4.08 1.14625 4.84 0.932914C5.61333 0.706247 6.4 0.592914 7.2 0.592914ZM24.5373 0.712915C25.524 0.859581 26.304 1.12625 26.8773 1.51291C27.464 1.88625 27.8973 2.31958 28.1773 2.81291C28.4573 3.30625 28.6373 3.79291 28.7173 4.27291C28.7973 4.73958 28.8373 5.13958 28.8373 5.47291C28.8373 5.89958 28.764 6.39291 28.6173 6.95291C28.4707 7.49958 28.224 8.03958 27.8773 8.57291C27.544 9.09291 27.0973 9.54625 26.5373 9.93291C25.9773 10.3062 25.2773 10.5329 24.4373 10.6129C24.2907 10.6262 24.104 10.6396 23.8773 10.6529C23.6507 10.6662 23.444 10.6796 23.2573 10.6929C23.084 10.6929 22.9773 10.6929 22.9373 10.6929C22.4307 10.7196 21.964 10.8662 21.5373 11.1329C21.124 11.3996 20.7907 11.7462 20.5373 12.1729C20.2973 12.5862 20.1707 13.0529 20.1573 13.5729V14.3129C20.1573 14.6596 20.204 14.9796 20.2973 15.2729C20.3907 15.5529 20.464 15.7462 20.5173 15.8529C20.1973 16.1462 19.9173 16.3529 19.6773 16.4729C19.4373 16.5929 19.1373 16.6796 18.7773 16.7329C18.484 16.7729 18.1573 16.7462 17.7973 16.6529C17.4507 16.5596 17.1373 16.3862 16.8573 16.1329C16.5773 15.8662 16.3973 15.4996 16.3173 15.0329C16.304 14.9529 16.2973 14.6996 16.2973 14.2729C16.2973 13.8329 16.2973 13.2929 16.2973 12.6529C16.3107 11.9996 16.3173 11.2862 16.3173 10.5129C16.3307 9.73958 16.3373 8.96625 16.3373 8.19291C16.3373 7.41958 16.3373 6.69958 16.3373 6.03291C16.324 5.31291 16.2907 4.70625 16.2373 4.21291C16.1973 3.71958 16.0973 3.40625 15.9373 3.27291C15.6573 3.03291 15.4373 2.65958 15.2773 2.15291C15.1307 1.64625 15.064 1.16625 15.0773 0.712915C15.1307 0.726248 15.2773 0.746248 15.5173 0.772914C15.7573 0.786248 16.0107 0.806248 16.2773 0.832914C16.4107 0.832914 16.6307 0.832914 16.9373 0.832914C17.244 0.819581 17.5773 0.799581 17.9373 0.772914C18.3107 0.746248 18.6707 0.726248 19.0173 0.712915C19.364 0.686248 19.644 0.666247 19.8573 0.652914C20.1507 0.626248 20.5373 0.599581 21.0173 0.572914C21.5107 0.546248 22.064 0.539581 22.6773 0.552914C23.2907 0.566248 23.9107 0.619581 24.5373 0.712915ZM22.1573 6.95291C22.344 6.96625 22.5773 6.95291 22.8573 6.91291C23.1507 6.85958 23.444 6.77958 23.7373 6.67291C24.044 6.56625 24.2973 6.41958 24.4973 6.23291C24.6973 6.03291 24.7973 5.79291 24.7973 5.51291C24.7973 5.12625 24.6507 4.82625 24.3573 4.61291C24.0773 4.39958 23.7307 4.25291 23.3173 4.17291C22.9173 4.09291 22.5307 4.05958 22.1573 4.07291C21.6107 4.08625 21.144 4.23958 20.7573 4.53291C20.3707 4.81291 20.1773 5.14625 20.1773 5.53291C20.1907 5.78625 20.2907 6.01958 20.4773 6.23291C20.6773 6.43291 20.924 6.59958 21.2173 6.73291C21.524 6.86625 21.8373 6.93958 22.1573 6.95291ZM32.1889 16.7929C31.6156 16.6862 31.2089 16.2996 30.9689 15.6329C30.7422 14.9662 30.6289 14.1396 30.6289 13.1529C30.6289 13.0329 30.6222 12.7329 30.6089 12.2529C30.6089 11.7729 30.6022 11.1796 30.5889 10.4729C30.5889 9.75291 30.5822 8.97958 30.5689 8.15291C30.5689 7.32625 30.5622 6.49958 30.5489 5.67291C30.5356 4.84625 30.5222 4.08625 30.5089 3.39291C30.4956 2.68625 30.4822 2.10625 30.4689 1.65291C30.4556 1.19958 30.4422 0.926247 30.4289 0.832914C30.6289 0.792914 30.9356 0.786247 31.3489 0.812915C31.7756 0.826248 32.2156 0.892914 32.6689 1.01291C33.1356 1.11958 33.5422 1.30625 33.8889 1.57291C34.2356 1.82625 34.4356 2.17958 34.4889 2.63291C34.5156 2.84625 34.5356 3.21291 34.5489 3.73291C34.5622 4.23958 34.5689 4.84625 34.5689 5.55291C34.5822 6.24625 34.5889 6.98625 34.5889 7.77291C34.5889 8.55958 34.5889 9.33958 34.5889 10.1129C34.5889 10.8729 34.5889 11.5796 34.5889 12.2329C34.5889 12.8729 34.5889 13.4129 34.5889 13.8529C34.6022 14.2796 34.6156 14.5396 34.6289 14.6329C34.6556 14.9129 34.7089 15.1196 34.7889 15.2529C34.8689 15.3729 34.9556 15.5262 35.0489 15.7129C34.7156 16.0729 34.3022 16.3662 33.8089 16.5929C33.3156 16.8196 32.7756 16.8862 32.1889 16.7929ZM49.7998 2.63291C49.8265 2.85958 49.8398 3.24625 49.8398 3.79291C49.8532 4.32625 49.8598 4.96625 49.8598 5.71291C49.8598 6.45958 49.8598 7.24625 49.8598 8.07291C49.8598 8.89958 49.8532 9.71958 49.8398 10.5329C49.8398 11.3462 49.8332 12.0862 49.8198 12.7529C49.8198 13.4196 49.8198 13.9662 49.8198 14.3929C49.8198 14.8062 49.8265 15.0396 49.8398 15.0929C49.8665 15.1996 49.8465 15.3729 49.7798 15.6129C49.7132 15.8396 49.6065 16.0596 49.4598 16.2729C49.3132 16.4729 49.1265 16.5929 48.8998 16.6329C48.6865 16.6862 48.3865 16.6862 47.9998 16.6329C47.6265 16.5929 47.2465 16.4929 46.8598 16.3329C46.4865 16.1596 46.1865 15.9129 45.9598 15.5929C45.8265 15.4062 45.6198 15.1396 45.3398 14.7929C45.0732 14.4329 44.7732 14.0462 44.4398 13.6329C44.1198 13.2062 43.7998 12.7996 43.4798 12.4129C43.1732 12.0129 42.9132 11.6729 42.6998 11.3929C42.4865 11.0996 42.3532 10.9196 42.2998 10.8529C42.1798 10.6662 41.9798 10.4796 41.6998 10.2929C41.4332 10.0929 41.2198 10.0196 41.0598 10.0729C40.8998 10.1262 40.7798 10.2929 40.6998 10.5729C40.6198 10.8396 40.5665 11.1262 40.5398 11.4329C40.5132 11.6329 40.4998 11.9396 40.4998 12.3529C40.4998 12.7529 40.4998 13.1662 40.4998 13.5929C40.5132 14.0196 40.5132 14.3662 40.4998 14.6329C40.4865 15.0996 40.6332 15.5462 40.9398 15.9729C40.8332 16.0396 40.6198 16.1462 40.2998 16.2929C39.9798 16.4262 39.6398 16.5462 39.2798 16.6529C38.9198 16.7596 38.6132 16.8062 38.3598 16.7929C37.9332 16.7662 37.5532 16.5462 37.2198 16.1329C36.8998 15.7196 36.7332 15.2062 36.7198 14.5929C36.7198 14.4729 36.7132 14.1396 36.6998 13.5929C36.6998 13.0329 36.6932 12.3396 36.6798 11.5129C36.6798 10.6862 36.6798 9.79291 36.6798 8.83291C36.6798 7.87291 36.6732 6.92625 36.6598 5.99291C36.6598 5.04625 36.6532 4.18625 36.6398 3.41291C36.6398 2.62625 36.6398 1.99958 36.6398 1.53291C36.6398 1.06625 36.6398 0.832914 36.6398 0.832914C37.4532 0.806248 38.1398 0.866248 38.6998 1.01291C39.2598 1.15958 39.7265 1.42625 40.0998 1.81291C40.2598 1.95958 40.4932 2.21958 40.7998 2.59291C41.1065 2.96625 41.4398 3.39291 41.7998 3.87291C42.1732 4.33958 42.5332 4.80625 42.8798 5.27291C43.2398 5.73958 43.5532 6.15292 43.8198 6.51292C44.0865 6.85958 44.2598 7.08625 44.3398 7.19291C44.5532 7.45958 44.7665 7.67291 44.9798 7.83291C45.2065 7.97958 45.3932 8.02625 45.5398 7.97291C45.8598 7.86625 46.0198 7.41958 46.0198 6.63291L45.9798 0.832914C46.1265 0.806248 46.3798 0.799581 46.7398 0.812915C47.1132 0.826248 47.5065 0.886248 47.9198 0.992915C48.3732 1.09958 48.7865 1.27958 49.1598 1.53291C49.5332 1.78625 49.7465 2.15291 49.7998 2.63291ZM59.7841 12.9729C59.9707 12.9462 60.2041 12.9129 60.4841 12.8729C60.7774 12.8329 61.0507 12.7862 61.3041 12.7329C61.5707 12.6662 61.7507 12.5929 61.8441 12.5129C62.0174 12.6596 62.1307 12.9596 62.1841 13.4129C62.2507 13.8529 62.2307 14.3129 62.1241 14.7929C62.0441 15.2062 61.9041 15.5929 61.7041 15.9529C61.5041 16.3129 61.2174 16.5329 60.8441 16.6129C60.5241 16.6796 60.1574 16.7196 59.7441 16.7329C59.3307 16.7462 58.9107 16.7462 58.4841 16.7329C58.0574 16.7196 57.6641 16.7062 57.3041 16.6929C56.9574 16.6796 56.6907 16.6729 56.5041 16.6729C56.3174 16.6729 56.0241 16.6729 55.6241 16.6729C55.2374 16.6862 54.8974 16.6996 54.6041 16.7129C54.2574 16.7529 53.8774 16.7796 53.4641 16.7929C53.0507 16.8062 52.6707 16.7929 52.3241 16.7529C51.9774 16.7129 51.7241 16.6462 51.5641 16.5529C51.6574 16.3662 51.7374 16.0862 51.8041 15.7129C51.8707 15.3262 51.9241 14.9062 51.9641 14.4529C52.0041 13.9996 52.0174 13.5662 52.0041 13.1529L51.9641 9.49291V7.79291C51.9641 7.31291 51.9574 6.91291 51.9441 6.59291C51.9441 6.27291 51.9441 6.09958 51.9441 6.07291C51.9441 5.63291 51.9241 5.15958 51.8841 4.65291C51.8441 4.14625 51.7974 3.66625 51.7441 3.21291C51.6907 2.74625 51.6441 2.36625 51.6041 2.07291C51.5507 1.84625 51.5107 1.62625 51.4841 1.41291C51.4574 1.18625 51.4507 0.986248 51.4641 0.812915C51.5574 0.852914 51.8107 0.892914 52.2241 0.932914C52.6507 0.959581 53.1441 0.986247 53.7041 1.01291C53.7441 1.01291 53.9374 1.01958 54.2841 1.03291C54.6307 1.03291 55.0574 1.03958 55.5641 1.05291C56.0841 1.06625 56.6174 1.07958 57.1641 1.09291C57.7241 1.09291 58.2307 1.09291 58.6841 1.09291C59.1374 1.09291 59.4707 1.08625 59.6841 1.07291C60.2307 1.04625 60.6907 1.00625 61.0641 0.952914C61.4507 0.886247 61.7107 0.799581 61.8441 0.692914C62.0041 0.826248 62.1507 1.07958 62.2841 1.45291C62.4307 1.81291 62.5107 2.19291 62.5241 2.59291C62.5241 2.97958 62.4307 3.34625 62.2441 3.69291C62.0707 4.02625 61.7507 4.25291 61.2841 4.37291C61.1107 4.41291 60.8374 4.44625 60.4641 4.47291C60.1041 4.49958 59.7507 4.51958 59.4041 4.53291C59.0707 4.53291 58.8307 4.52625 58.6841 4.51291C58.2707 4.47291 57.8441 4.51958 57.4041 4.65291C56.9641 4.77291 56.5907 4.93958 56.2841 5.15291C55.9774 5.35291 55.8174 5.57291 55.8041 5.81291C55.7907 6.03958 55.8841 6.22625 56.0841 6.37291C56.2841 6.51958 56.5441 6.63958 56.8641 6.73291C57.1974 6.81291 57.5507 6.86625 57.9241 6.89291C58.2974 6.91958 58.6507 6.92625 58.9841 6.91291C59.2507 6.88625 59.5574 6.83958 59.9041 6.77291C60.2507 6.70625 60.4641 6.63958 60.5441 6.57291C60.7174 6.71958 60.8374 6.99291 60.9041 7.39291C60.9841 7.79291 60.9841 8.20625 60.9041 8.63291C60.8374 8.97958 60.7041 9.29958 60.5041 9.59291C60.3041 9.88625 60.0241 10.0862 59.6641 10.1929C59.3841 10.2729 59.1441 10.3262 58.9441 10.3529C58.7441 10.3662 58.6441 10.3729 58.6441 10.3729C57.8574 10.3729 57.1907 10.5129 56.6441 10.7929C56.1107 11.0596 55.8174 11.3796 55.7641 11.7529C55.7107 12.0729 55.7774 12.3662 55.9641 12.6329C56.1641 12.8996 56.4507 13.0462 56.8241 13.0729C57.0774 13.0862 57.3974 13.0929 57.7841 13.0929C58.1841 13.0796 58.5707 13.0662 58.9441 13.0529C59.3307 13.0262 59.6107 12.9996 59.7841 12.9729ZM76.9403 0.512914C77.1003 0.646248 77.2136 0.906248 77.2803 1.29291C77.3603 1.67958 77.3936 2.09958 77.3803 2.55291C77.367 2.99291 77.3003 3.39291 77.1803 3.75291C77.0603 4.09958 76.887 4.30625 76.6603 4.37291C76.567 4.39958 76.3736 4.43958 76.0803 4.49291C75.8003 4.53291 75.5403 4.58625 75.3003 4.65291C75.0736 4.71958 74.7736 4.83291 74.4003 4.99291C74.027 5.15291 73.707 5.38625 73.4403 5.69291C73.227 5.94625 73.0536 6.21291 72.9203 6.49291C72.787 6.75958 72.7136 7.10625 72.7003 7.53291C72.687 7.70625 72.6803 8.03291 72.6803 8.51291C72.6803 8.97958 72.6803 9.52625 72.6803 10.1529C72.6803 10.7662 72.6803 11.3729 72.6803 11.9729C72.6936 12.5729 72.7003 13.0862 72.7003 13.5129C72.7003 13.9396 72.7003 14.1929 72.7003 14.2729C72.687 14.6729 72.727 15.0129 72.8203 15.2929C72.9136 15.5729 73.0136 15.7396 73.1203 15.7929C72.787 16.0462 72.4536 16.2596 72.1203 16.4329C71.8003 16.6062 71.3403 16.7329 70.7403 16.8129C70.5136 16.8396 70.2603 16.7729 69.9803 16.6129C69.7003 16.4662 69.4536 16.2329 69.2403 15.9129C69.0403 15.5796 68.9336 15.1729 68.9203 14.6929C68.9203 14.2129 68.9136 13.5996 68.9003 12.8529C68.9003 12.0929 68.9003 11.2729 68.9003 10.3929C68.9136 9.49958 68.9136 8.60625 68.9003 7.71291C68.887 7.32625 68.827 6.95958 68.7203 6.61292C68.627 6.26625 68.467 5.96625 68.2403 5.71291C68.0136 5.44625 67.7136 5.22625 67.3403 5.05291C66.967 4.87958 66.5003 4.76625 65.9403 4.71291C65.7936 4.69958 65.5936 4.65958 65.3403 4.59291C65.087 4.52625 64.9136 4.45958 64.8203 4.39292C64.6736 4.28625 64.5536 4.08625 64.4603 3.79291C64.367 3.48625 64.2936 3.15291 64.2403 2.79291C64.187 2.41958 64.147 2.05291 64.1203 1.69291C64.107 1.33291 64.107 1.03958 64.1203 0.812915C64.1736 0.826248 64.3203 0.846248 64.5603 0.872914C64.8136 0.899581 65.1136 0.926248 65.4603 0.952914C65.807 0.966247 66.147 0.979581 66.4803 0.992915C66.7203 1.00625 67.0403 1.01958 67.4403 1.03291C67.8536 1.04625 68.2936 1.05958 68.7603 1.07291C69.227 1.08625 69.667 1.09958 70.0803 1.11291C70.4936 1.11291 70.8336 1.11291 71.1003 1.11291C71.4603 1.09958 71.8803 1.08625 72.3603 1.07291C72.8403 1.05958 73.3003 1.04625 73.7403 1.03291C74.1936 1.00625 74.5536 0.979581 74.8203 0.952914C75.087 0.926248 75.367 0.892914 75.6603 0.852914C75.967 0.799581 76.2336 0.746247 76.4603 0.692914C76.7003 0.626247 76.8603 0.566247 76.9403 0.512914Z" fill="#0E21A1"/>
</svg>
